<svg xmlns="http://www.w3.org/2000/svg" width="65" height="65" fill="none"><path fill="#fff" d="M6.462 7.704h51.889v47.897H6.462z"/><path fill="#FF3951" fill-rule="evenodd" d="M17.88.163h29.884c10.884 0 17.028 6.173 17.06 17.056v29.888c0 10.88-6.176 17.056-17.06 17.056H17.88C6.997 64.163.824 57.987.824 47.107V17.22C.824 6.336 6.997.163 17.88.163Zm15.1 50.752a2.645 2.645 0 0 0 2.657-2.4V15.907a2.61 2.61 0 0 0-1.213-2.528c-.9-.544-1.987-.544-2.848 0a2.7 2.7 0 0 0-1.251 2.528v32.608c.163 1.376 1.312 2.4 2.656 2.4Zm14.724 0c1.344 0 2.493-1.024 2.656-2.4V38.02a2.67 2.67 0 0 0-1.251-2.528c-.861-.544-1.95-.544-2.845 0-.867.544-1.344 1.5-1.216 2.528v10.496a2.645 2.645 0 0 0 2.656 2.4Zm-26.98-2.4a2.645 2.645 0 0 1-2.656 2.4 2.642 2.642 0 0 1-2.653-2.4V26.403a2.69 2.69 0 0 1 1.248-2.528 2.633 2.633 0 0 1 2.817 0 2.694 2.694 0 0 1 1.244 2.528v22.112Z" clip-rule="evenodd"/><rect width="8.113" height="28.074" x="14.165" y="23.445" fill="#fff" rx="4.056"/><rect width="8.113" height="38.713" x="28.767" y="12.807" fill="#fff" rx="4.056"/><rect width="8.113" height="19.307" x="43.37" y="32.212" fill="#fff" rx="4.056"/></svg>