<svg xmlns="http://www.w3.org/2000/svg" width="221" height="49" fill="none"><g filter="url(#a)"><path fill="#fff" d="M9.215 9.053h29.588v27.312H9.215z"/><path fill="#FF3951" fill-rule="evenodd" d="M15.726 4.753h17.04c6.206 0 9.71 3.52 9.728 9.726V31.52c0 6.204-3.522 9.726-9.727 9.726H15.726C9.52 41.247 6 37.725 6 31.521V14.48c0-6.206 3.52-9.726 9.726-9.726Zm8.61 28.94c.787 0 1.442-.584 1.515-1.369V13.731a1.488 1.488 0 0 0-.691-1.442 1.533 1.533 0 0 0-2.338 1.441v18.594a1.537 1.537 0 0 0 1.515 1.369Zm8.396 0c.767 0 1.422-.584 1.515-1.369V26.34a1.53 1.53 0 0 0-2.336-1.442 1.47 1.47 0 0 0-.693 1.442v5.985a1.509 1.509 0 0 0 1.514 1.369Zm-15.384-1.369a1.508 1.508 0 0 1-1.515 1.369 1.507 1.507 0 0 1-1.513-1.369V19.716a1.534 1.534 0 0 1 .712-1.442 1.503 1.503 0 0 1 1.606 0c.49.31.766.874.71 1.442v12.608Z" clip-rule="evenodd"/></g><rect width="4.626" height="16.009" x="13.608" y="18.029" fill="#fff" rx="2.313"/><rect width="4.626" height="22.075" x="21.935" y="11.963" fill="#fff" rx="2.313"/><rect width="4.626" height="11.009" x="30.262" y="23.028" fill="#fff" rx="2.313"/><path fill="#14142B" d="M67.214 35.36c-1.58 0-3.05-.29-4.41-.87a10.96 10.96 0 0 1-3.51-2.4c-.98-1.04-1.75-2.26-2.31-3.66-.56-1.4-.84-2.94-.84-4.62 0-1.66.27-3.19.81-4.59.56-1.42 1.34-2.64 2.34-3.66 1-1.04 2.17-1.84 3.51-2.4 1.34-.58 2.81-.87 4.41-.87 1.58 0 2.99.27 4.23.81 1.26.54 2.32 1.25 3.18 2.13.86.86 1.48 1.8 1.86 2.82l-3.18 1.5a6.355 6.355 0 0 0-2.31-2.91c-1.04-.76-2.3-1.14-3.78-1.14s-2.79.35-3.93 1.05c-1.14.7-2.03 1.67-2.67 2.91-.62 1.24-.93 2.69-.93 4.35 0 1.66.31 3.12.93 4.38.64 1.24 1.53 2.21 2.67 2.91 1.14.68 2.45 1.02 3.93 1.02s2.74-.37 3.78-1.11a6.355 6.355 0 0 0 2.31-2.91l3.18 1.5c-.38 1-1 1.94-1.86 2.82-.86.88-1.92 1.59-3.18 2.13-1.24.54-2.65.81-4.23.81ZM78.69 35V18.77h3.24v3.27l-.3-.48c.36-1.06.94-1.82 1.74-2.28.8-.48 1.76-.72 2.88-.72h.99v3.09h-1.41c-1.12 0-2.03.35-2.73 1.05-.68.68-1.02 1.66-1.02 2.94V35h-3.39Zm17.386.36c-1.62 0-3.06-.37-4.32-1.11a8.07 8.07 0 0 1-2.91-3.06c-.7-1.3-1.05-2.75-1.05-4.35 0-1.64.35-3.09 1.05-4.35.72-1.26 1.68-2.25 2.88-2.97 1.2-.74 2.56-1.11 4.08-1.11 1.22 0 2.31.21 3.27.63.96.42 1.77 1 2.43 1.74.66.72 1.16 1.55 1.5 2.49.36.94.54 1.94.54 3 0 .26-.01.53-.03.81-.02.28-.06.54-.12.78h-12.93v-2.7h11.01l-1.62 1.23c.2-.98.13-1.85-.21-2.61a3.87 3.87 0 0 0-1.5-1.83c-.66-.46-1.44-.69-2.34-.69-.9 0-1.7.23-2.4.69-.7.44-1.24 1.08-1.62 1.92-.38.82-.53 1.82-.45 3-.1 1.1.05 2.06.45 2.88.42.82 1 1.46 1.74 1.92.76.46 1.62.69 2.58.69.98 0 1.81-.22 2.49-.66.7-.44 1.25-1.01 1.65-1.71l2.76 1.35c-.32.76-.82 1.45-1.5 2.07-.66.6-1.46 1.08-2.4 1.44-.92.34-1.93.51-3.03.51Zm14.388 0c-1.1 0-2.07-.19-2.91-.57-.82-.4-1.46-.94-1.92-1.62-.46-.7-.69-1.52-.69-2.46 0-.88.19-1.67.57-2.37.4-.7 1.01-1.29 1.83-1.77.82-.48 1.85-.82 3.09-1.02l5.64-.93v2.67l-4.98.87c-.9.16-1.56.45-1.98.87-.42.4-.63.92-.63 1.56 0 .62.23 1.13.69 1.53.48.38 1.09.57 1.83.57.92 0 1.72-.2 2.4-.6.7-.4 1.24-.93 1.62-1.59.38-.68.57-1.43.57-2.25v-4.17c0-.8-.3-1.45-.9-1.95-.58-.52-1.36-.78-2.34-.78-.9 0-1.69.24-2.37.72a4.17 4.17 0 0 0-1.47 1.8l-2.82-1.41c.3-.8.79-1.5 1.47-2.1.68-.62 1.47-1.1 2.37-1.44.92-.34 1.89-.51 2.91-.51 1.28 0 2.41.24 3.39.72 1 .48 1.77 1.15 2.31 2.01.56.84.84 1.82.84 2.94V35h-3.24v-2.94l.69.09c-.38.66-.87 1.23-1.47 1.71-.58.48-1.25.85-2.01 1.11-.74.26-1.57.39-2.49.39Zm18.106-.18c-1.7 0-3.02-.48-3.96-1.44s-1.41-2.31-1.41-4.05v-7.86h-2.85v-3.06h.45c.76 0 1.35-.22 1.77-.66.42-.44.63-1.04.63-1.8v-1.26h3.39v3.72h3.69v3.06h-3.69v7.71c0 .56.09 1.04.27 1.44.18.38.47.68.87.9.4.2.92.3 1.56.3.16 0 .34-.01.54-.03.2-.02.39-.04.57-.06V35c-.28.04-.59.08-.93.12-.34.04-.64.06-.9.06Zm4.034-.18V18.77h3.39V35h-3.39Zm0-18.45v-3.9h3.39v3.9h-3.39ZM143.564 35l-6.36-16.23h3.69l4.89 13.23h-1.35l4.89-13.23h3.72L146.654 35h-3.09Zm18.007.36c-1.62 0-3.06-.37-4.32-1.11a8.07 8.07 0 0 1-2.91-3.06c-.7-1.3-1.05-2.75-1.05-4.35 0-1.64.35-3.09 1.05-4.35.72-1.26 1.68-2.25 2.88-2.97 1.2-.74 2.56-1.11 4.08-1.11 1.22 0 2.31.21 3.27.63.96.42 1.77 1 2.43 1.74.66.72 1.16 1.55 1.5 2.49.36.94.54 1.94.54 3 0 .26-.01.53-.03.81-.02.28-.06.54-.12.78h-12.93v-2.7h11.01l-1.62 1.23c.2-.98.13-1.85-.21-2.61a3.87 3.87 0 0 0-1.5-1.83c-.66-.46-1.44-.69-2.34-.69-.9 0-1.7.23-2.4.69-.7.44-1.24 1.08-1.62 1.92-.38.82-.53 1.82-.45 3-.1 1.1.05 2.06.45 2.88.42.82 1 1.46 1.74 1.92.76.46 1.62.69 2.58.69.98 0 1.81-.22 2.49-.66.7-.44 1.25-1.01 1.65-1.71l2.76 1.35c-.32.76-.82 1.45-1.5 2.07-.66.6-1.46 1.08-2.4 1.44-.92.34-1.93.51-3.03.51Zm10.005-.36V12.65h3.54v19.2h9.66V35h-13.2Zm19.597.36c-1.1 0-2.07-.19-2.91-.57-.82-.4-1.46-.94-1.92-1.62-.46-.7-.69-1.52-.69-2.46 0-.88.19-1.67.57-2.37.4-.7 1.01-1.29 1.83-1.77.82-.48 1.85-.82 3.09-1.02l5.64-.93v2.67l-4.98.87c-.9.16-1.56.45-1.98.87-.42.4-.63.92-.63 1.56 0 .62.23 1.13.69 1.53.48.38 1.09.57 1.83.57.92 0 1.72-.2 2.4-.6.7-.4 1.24-.93 1.62-1.59.38-.68.57-1.43.57-2.25v-4.17c0-.8-.3-1.45-.9-1.95-.58-.52-1.36-.78-2.34-.78-.9 0-1.69.24-2.37.72a4.17 4.17 0 0 0-1.47 1.8l-2.82-1.41c.3-.8.79-1.5 1.47-2.1.68-.62 1.47-1.1 2.37-1.44.92-.34 1.89-.51 2.91-.51 1.28 0 2.41.24 3.39.72 1 .48 1.77 1.15 2.31 2.01.56.84.84 1.82.84 2.94V35h-3.24v-2.94l.69.09c-.38.66-.87 1.23-1.47 1.71-.58.48-1.25.85-2.01 1.11-.74.26-1.57.39-2.49.39Zm20.05 0c-1.26 0-2.41-.26-3.45-.78a5.596 5.596 0 0 1-2.37-2.25l.39-.63V35h-3.24V12.29h3.39v9.84l-.54-.78c.6-.92 1.4-1.64 2.4-2.16 1-.52 2.14-.78 3.42-.78 1.54 0 2.92.37 4.14 1.11 1.24.74 2.21 1.75 2.91 3.03.72 1.28 1.08 2.72 1.08 4.32s-.36 3.04-1.08 4.32c-.7 1.28-1.66 2.3-2.88 3.06-1.22.74-2.61 1.11-4.17 1.11Zm-.33-3.15c.96 0 1.81-.23 2.55-.69a4.81 4.81 0 0 0 1.74-1.89c.44-.82.66-1.74.66-2.76 0-1.02-.22-1.93-.66-2.73-.42-.8-1-1.43-1.74-1.89-.74-.46-1.59-.69-2.55-.69-.94 0-1.79.23-2.55.69-.74.46-1.33 1.09-1.77 1.89-.42.8-.63 1.71-.63 2.73s.21 1.94.63 2.76c.44.8 1.03 1.43 1.77 1.89.76.46 1.61.69 2.55.69Z"/><defs><filter id="a" width="47.324" height="47.324" x=".585" y=".885" color-interpolation-filters="sRGB" filterUnits="userSpaceOnUse"><feFlood flood-opacity="0" result="BackgroundImageFix"/><feColorMatrix in="SourceAlpha" result="hardAlpha" values="0 0 0 0 0 0 0 0 0 0 0 0 0 0 0 0 0 0 127 0"/><feOffset dy="1.547"/><feGaussianBlur stdDeviation="2.707"/><feColorMatrix values="0 0 0 0 1 0 0 0 0 0.223529 0 0 0 0 0.317647 0 0 0 0.42 0"/><feBlend in2="BackgroundImageFix" result="effect1_dropShadow_3151_17304"/><feBlend in="SourceGraphic" in2="effect1_dropShadow_3151_17304" result="shape"/></filter></defs></svg>